#!OML:ASF F:\VICON\USERDATA\INSTALL\rory3\rory3.ASF
:FULLY-SPECIFIED
:DEGREES
64
root -0.17732795700574389 17.564040967961027 33.86255342777774 0.48012871153905046 5.429436146663897 -3.021570235661536
lfemur -24.064284158393832 -0.44165305325401677 -22.96162869797127
ltibia 40.067396187699345
lfoot -8.471434435887959 -9.094606168827267
ltoes 1.829370840074624
rfemur -0.6375081585348568 -1.0038457169703963 27.91376292556799
rtibia 90.42879079991926
rfoot 15.828071665494248 -10.365058197659728
rtoes 12.45399872609482
lowerback 15.36729651302709 2.3624724575139133 2.720591912703208
upperback -0.67328821797516 3.7267455404992917 0.7189508949029899
thorax -9.341743449776859 1.6471618480886974 -1.7890332535902331
lowerneck -19.587305488584715 -4.922974945603689 -2.250959338278449
upperneck 14.69602168680289 -6.796937537601158 3.6819372582402945
head 7.969175298313083 -2.983060957759018 0.8086811523988903
lclavicle -7.555012330293516e-16 2.490434378431775e-15
lhumerus -63.27123198136336 -7.984204704526434 98.98141430914808
lradius 113.44021780849896
lwrist 31.0442956110384
lhand -25.102619924504577 2.7631444444445243
lfingers 7.12502
lthumb 1.4123663956573382 32.74971617382572
rclavicle -7.555012330293516e-16 2.490434378431775e-15
rhumerus -43.23818695169835 11.695773813236165 -98.32245128786478
rradius 105.5820316724112
rwrist -8.670047711416336
rhand -16.963581264560244 38.41448592945766
rfingers 7.12502
rthumb 9.270217131024467 9.344733676021043
65
root -0.22720586434382392 17.304308020340283 33.1968289041959 0.20631840364017506 5.225500847454868 -1.9711249526310533
lfemur -22.96423106318122 -1.2058903026575931 -24.6391599683594
ltibia 43.27223766597125
lfoot -13.577685042925067 -6.3280631233853555
ltoes 2.7408960122763126
rfemur -7.1028926536529156 -3.0708304389899888 24.998215703037133
rtibia 97.2318931275391
rfoot 13.48204975443542 -9.875636457212947
rtoes 12.566314420422604
lowerback 15.843310876921802 2.1503770449234665 1.1285558500637622
upperback -0.432450830956021 3.142573764949266 0.25988361151275097
thorax -9.538548941557703 1.4331891500316012 -1.2735680309249569
lowerneck -20.0640944456571 -4.894806577399539 -2.1556087752677078
upperneck 14.504375446048343 -6.805673390984614 3.737275513713721
head 7.9612632351432815 -2.9612030581035453 0.8187326155176957
lclavicle -1.946425664325951e-15 1.6255089163954552e-15
lhumerus -59.85335468435724 -10.595842101109783 99.56197489796153
lradius 111.96568724278045
lwrist 31.570889931039382
lhand -25.74537745637859 3.606928271970555
lfingers 7.12502
lthumb 0.791614009239627 33.59098526149919
rclavicle -1.946425664325951e-15 1.6255089163954552e-15
rhumerus -44.7588580839573 9.784204631201298 -99.35169695692483
rradius 103.48137646059698
rwrist -8.353339513509036
rhand -17.198731910223362 38.21709062821181
rfingers 7.12502
rthumb 9.043239056136404 9.10079595050782
66
root -0.23422028355385674 17.127727301873165 35.57229633792844 0.4461907107140197 5.079950035998717 -0.6725026989896974
lfemur -19.428877035898694 -1.3913778602843945 -25.665637116721754
ltibia 48.16238039952303
lfoot -17.18833606684621 -2.2791082247377776
ltoes 3.059385856211822
rfemur -11.46873751066351 -4.03662195688946 22.882136587943407
rtibia 106.62132791679336
rfoot 12.682267285258316 -8.500367031241375
rtoes 14.518909534224898
lowerback 16.364062396908555 2.2630454845972108 -0.09780423816289807
upperback -0.1514290853054303 3.0189411387503835 -0.06226922502666299
thorax -9.614847605366313 1.4209328873190055 -0.3992529856832491
lowerneck -20.370754785090085 -4.740540526959945 -2.0455945409978953
upperneck 14.421634425808415 -6.620458142203073 3.9839506278129795
head 7.9820302960480785 -2.8477724224526715 0.9052081129992716
lclavicle -3.8316779946333386e-17 3.010042120455976e-15
lhumerus -54.528973003885795 -12.321959005601972 100.22479760845906
lradius 110.71423601995322
lwrist 32.344844708320906
lhand -25.6991565550782 4.248493053216784
lfingers 7.12502
lthumb 0.8362613559020454 34.239601239913576
rclavicle -3.8316779946333386e-17 3.010042120455976e-15
rhumerus -45.0761637886639 8.462211237913937 -99.88846216548208
rradius 102.21304443848486
rwrist -8.045736637130506
rhand -16.961080638126287 38.14096031999149
rfingers 7.12502
rthumb 9.272516371677728 9.032727196425672
67
root -0.25523089210633754 16.957711454547578 34.82811776266539 0.6804428985125996 4.620745970353795 0.01552962545312253
lfemur -17.94569965281512 -2.2742312578250816 -26.98140218395477
ltibia 48.43281047238894
lfoot -20.953717928496012 0.4138816285637388
ltoes 0.6689638837680238
rfemur -19.36413953780406 -5.46816118461823 20.81248314147465
rtibia 110.18463303489375
rfoot 10.317369193523291 -7.584471795327297
rtoes 13.95017665232995
lowerback 16.576408531910978 2.0113430407919264 -1.2721428473665364
upperback -0.11090860236396849 2.448446349042895 -0.4243916469441662
thorax -9.782597717041885 1.1996134131465803 -0.11324524730197871
lowerneck -20.903094201072932 -4.673170701277573 -1.9568506919023738
upperneck 14.147101550104061 -6.549296268452405 3.9456752813584366
head 7.953446122623911 -2.800088708002004 0.890702048273336
lclavicle -1.5588065064461067e-15 1.9065855532485597e-15
lhumerus -50.59973524750166 -15.098836856336247 100.30397019231313
lradius 108.74822249978354
lwrist 32.585525131894435
lhand -26.063188370016515 4.521587549945282
lfingers 7.12502
lthumb 0.48470384634612684 34.511965532100305
rclavicle -1.5588065064461067e-15 1.9065855532485597e-15
rhumerus -47.08304709922001 6.798294094337691 -100.68794200831617
rradius 101.11244317964304
rwrist -8.366747331787499
rhand -17.0777063835619 38.05406628189344
rfingers 7.12502
rthumb 9.160014554572044 8.856096499394974
68
root -0.26202352302791043 16.903730183793677 36.27874823891901 1.2085363473993618 4.2358221714925435 0.5545146430931998
lfemur -14.195859761750542 -2.366023746562901 -27.300078690597072
ltibia 49.90156732435632
lfoot -22.22473103677575 2.7936070829175597
ltoes -1.5333212675957455
rfemur -24.894496702892166 -6.038553284747721 20.160275537884125
rtibia 114.59344840686191
rfoot 9.052660978000823 -6.6612779239953674
rtoes 14.084192412656392
lowerback 16.822357382641826 1.9375619404747062 -1.8850091262083175
upperback -0.03864303200556174 2.212923962756186 -0.47706929868792836
thorax -9.851807000585039 1.1175330804813308 0.5248790910328724
lowerneck -21.265823952381762 -4.444088998958467 -1.8999114175182878
upperneck 14.043059149835916 -6.233301650949322 4.04547268626903
head 7.964037159329595 -2.6386734653861 0.9456090726275209
lclavicle -4.946080999363461e-16 2.679593986047723e-15
lhumerus -45.70689598392282 -16.50222646315243 100.21026704454154
lradius 107.84911825690227
lwrist 32.724438655185466
lhand -25.66206505571421 3.891470333061336
lfingers 7.12502
lthumb 0.8721474009419173 33.88825712907956
rclavicle -4.946080999363461e-16 2.679593986047723e-15
rhumerus -48.172200061423446 5.875091936230033 -100.87653627497453
rradius 101.0341607092406
rwrist -9.008426229964883
rhand -16.702566507262937 38.06640623936915
rfingers 7.12502
rthumb 9.52207908528141 8.899695701680193
69
root -0.2518185023090955 16.901255840130826 37.20878171920812 1.6839028308482842 4.020375418272711 0.6289584404581512
lfemur -10.994151991565332 -2.684864455909706 -27.368697269313255
ltibia 49.42165659312926
lfoot -22.757352961572145 3.8030151901172724
ltoes -4.454410513758287
rfemur -30.637120579678182 -6.672113002968759 20.099986588089894
rtibia 115.98645939215596
rfoot 7.667086603546174 -6.075651452703181
rtoes 12.7606040031126
lowerback 16.90729938352456 1.595197062436235 -2.097476732421664
upperback -0.1364120233556697 1.7136417584637686 -0.3934621082106573
thorax -9.962934690850611 0.9000741344565626 0.943149641325373
lowerneck -21.537851145803046 -4.175963247200179 -1.8269876804205394
upperneck 13.992637257263617 -5.855675831997593 3.9530217777190035
head 7.969470157120791 -2.461481618659421 0.9408997252725098
lclavicle -3.689360398568578e-16 2.7699814199589743e-15
lhumerus -41.8198030688842 -17.48775102144963 99.94312926375713
lradius 107.75116357358615
lwrist 32.80855750557071
lhand -25.500912630514826 3.2762502426503914
lfingers 7.12502
lthumb 1.0277632026864072 33.27735614905178
rclavicle -3.689360398568574e-16 2.7699814199589743e-15
rhumerus -49.86092925800185 5.549739808229502 -101.11208097183012
rradius 101.57268224830072
rwrist -9.948760246368632
rhand -16.436454165697565 38.193249098506016
rfingers 7.12502
rthumb 9.779027820664565 8.963429630761762
